G04 Layer: TopLayer*
G04 EasyEDA v6.5.54, 2026-04-27 13:05:50*
G04 3041f142e7214b01b7a4a9f61c56ae32,2b40bd6efca74a20b6433a9dfad3d04a,10*
G04 Gerber Generator version 0.2*
G04 Scale: 100 percent, Rotated: No, Reflected: No *
G04 Dimensions in millimeters *
G04 leading zeros omitted , absolute positions ,4 integer and 5 decimal *
%FSLAX45Y45*%
%MOMM*%

%ADD10C,0.2540*%
%ADD11R,1.2000X1.8000*%
%ADD12C,3.0000*%
%ADD13C,0.0170*%

%LPD*%
G36*
X994156Y-349504D02*
G01*
X992581Y-349707D01*
X991209Y-350215D01*
X988821Y-352044D01*
X989837Y-353314D01*
X991768Y-351688D01*
X992784Y-351231D01*
X993902Y-351028D01*
X995527Y-351332D01*
X996645Y-352196D01*
X997254Y-353364D01*
X997458Y-354838D01*
X996950Y-357428D01*
X995426Y-360273D01*
X992733Y-363423D01*
X988821Y-367030D01*
X988821Y-368300D01*
X1000252Y-368300D01*
X1000252Y-366522D01*
X993495Y-366572D01*
X991869Y-366776D01*
X994968Y-363626D01*
X997407Y-360629D01*
X998931Y-357682D01*
X999490Y-354838D01*
X999134Y-352602D01*
X998067Y-350926D01*
X996391Y-349859D01*
G37*
G36*
X952500Y-349758D02*
G01*
X958596Y-368300D01*
X960882Y-368300D01*
X966978Y-349758D01*
X964692Y-349758D01*
X959866Y-366014D01*
X959612Y-366014D01*
X954786Y-349758D01*
G37*
G36*
X973836Y-349758D02*
G01*
X972108Y-350469D01*
X970026Y-351028D01*
X970026Y-352298D01*
X973328Y-352298D01*
X973328Y-366522D01*
X969264Y-366522D01*
X969264Y-368300D01*
X979169Y-368300D01*
X979169Y-366522D01*
X975360Y-366522D01*
X975360Y-349758D01*
G37*
G36*
X984250Y-365252D02*
G01*
X983183Y-365760D01*
X982726Y-367030D01*
X983183Y-368147D01*
X984250Y-368554D01*
X985316Y-368198D01*
X985774Y-367030D01*
X985316Y-365760D01*
G37*
D10*
X824992Y-925068D02*
G01*
X1229360Y-520700D01*
X3275075Y-520700D01*
X3275075Y-249936D01*
X7724902Y-925068D02*
G01*
X7473188Y-673100D01*
X5372100Y-673100D01*
X5372100Y-252984D01*
X5374893Y-249936D01*
X5424931Y-925068D02*
G01*
X5039868Y-925068D01*
X4787900Y-673100D01*
X4673600Y-673100D01*
X4674870Y-249936D01*
X6575043Y-925068D02*
G01*
X6411975Y-762000D01*
X5041900Y-762000D01*
X5041900Y-266954D01*
X5024881Y-249936D01*
X1975104Y-925068D02*
G01*
X2252218Y-647700D01*
X3619500Y-647700D01*
X3619500Y-255523D01*
X3625088Y-249936D01*
X3124961Y-925068D02*
G01*
X3326129Y-723900D01*
X3975100Y-723900D01*
X3975100Y-249936D01*
X4274997Y-924991D02*
G01*
X4274997Y-300001D01*
X4325000Y-249999D01*
X7024982Y-1775002D02*
G01*
X7180379Y-1930400D01*
X8001000Y-1930400D01*
X8156397Y-1775002D01*
X8174979Y-1775002D01*
X5874981Y-1775002D02*
G01*
X6030379Y-1930400D01*
X6832600Y-1930400D01*
X6987997Y-1775002D01*
X7024982Y-1775002D01*
X4724986Y-1775002D02*
G01*
X4880383Y-1930400D01*
X5740400Y-1930400D01*
X5874981Y-1795818D01*
X5874981Y-1775002D01*
X3574989Y-1775002D02*
G01*
X3730386Y-1930400D01*
X4559300Y-1930400D01*
X4714697Y-1775002D01*
X4724986Y-1775002D01*
X2424988Y-1775002D02*
G01*
X2567686Y-1917700D01*
X3416300Y-1917700D01*
X3558997Y-1775002D01*
X3574989Y-1775002D01*
X1274993Y-1775002D02*
G01*
X1417690Y-1917700D01*
X2247900Y-1917700D01*
X2390597Y-1775002D01*
X2424988Y-1775002D01*
X8174990Y-1774952D02*
G01*
X8321547Y-1774952D01*
X8343900Y-1752600D01*
X8343900Y-609600D01*
X8305800Y-571500D01*
X5727700Y-571500D01*
X5727700Y-252729D01*
X5724906Y-249936D01*
D11*
G01*
X1274978Y-924991D03*
G01*
X1274978Y-1775002D03*
G01*
X824992Y-924991D03*
G01*
X824992Y-1775002D03*
G01*
X2424963Y-924991D03*
G01*
X2424963Y-1775002D03*
G01*
X1975002Y-924991D03*
G01*
X1975002Y-1775002D03*
G01*
X3574973Y-924991D03*
G01*
X3574973Y-1775002D03*
G01*
X3124987Y-924991D03*
G01*
X3124987Y-1775002D03*
G01*
X4724958Y-924991D03*
G01*
X4724958Y-1775002D03*
G01*
X4274997Y-924991D03*
G01*
X4274997Y-1775002D03*
G01*
X5874969Y-924991D03*
G01*
X5874969Y-1775002D03*
G01*
X5424982Y-924991D03*
G01*
X5424982Y-1775002D03*
G01*
X7024979Y-924991D03*
G01*
X7024979Y-1775002D03*
G01*
X6574993Y-924991D03*
G01*
X6574993Y-1775002D03*
G01*
X8174964Y-924991D03*
G01*
X8174964Y-1775002D03*
G01*
X7724978Y-924991D03*
G01*
X7724978Y-1775002D03*
D12*
G01*
X3274999Y-250012D03*
G01*
X3625011Y-250012D03*
G01*
X3974998Y-250012D03*
G01*
X4325010Y-250012D03*
G01*
X4674997Y-250012D03*
G01*
X5025009Y-250012D03*
G01*
X5374995Y-250012D03*
G01*
X5725007Y-250012D03*
M02*
