G04 Layer: TopLayer*
G04 EasyEDA v6.5.54, 2026-04-27 00:22:58*
G04 2b40bd6efca74a20b6433a9dfad3d04a,10*
G04 Gerber Generator version 0.2*
G04 Scale: 100 percent, Rotated: No, Reflected: No *
G04 Dimensions in millimeters *
G04 leading zeros omitted , absolute positions ,4 integer and 5 decimal *
%FSLAX45Y45*%
%MOMM*%

%ADD10C,0.2540*%
%ADD11R,1.2000X1.8000*%
%ADD12C,3.0000*%
%ADD13C,0.0192*%

%LPD*%
D10*
X824992Y-925068D02*
G01*
X1229360Y-520700D01*
X3275075Y-520700D01*
X3275075Y-249936D01*
X7724902Y-925068D02*
G01*
X7473188Y-673100D01*
X5372100Y-673100D01*
X5372100Y-252984D01*
X5374893Y-249936D01*
X5424931Y-925068D02*
G01*
X5039868Y-925068D01*
X4787900Y-673100D01*
X4673600Y-673100D01*
X4674870Y-249936D01*
X6575043Y-925068D02*
G01*
X6411975Y-762000D01*
X5041900Y-762000D01*
X5041900Y-266954D01*
X5024881Y-249936D01*
X1975104Y-925068D02*
G01*
X2252218Y-647700D01*
X3619500Y-647700D01*
X3619500Y-255523D01*
X3625088Y-249936D01*
X3124961Y-925068D02*
G01*
X3326129Y-723900D01*
X3975100Y-723900D01*
X3975100Y-249936D01*
X4274997Y-924991D02*
G01*
X4274997Y-300001D01*
X4325000Y-249999D01*
X8174979Y-1775002D02*
G01*
X8321497Y-1775002D01*
X8445500Y-1651000D01*
X8445500Y-711200D01*
X8305800Y-571500D01*
X5727700Y-571500D01*
X5727700Y-252702D01*
X5724997Y-249999D01*
X7024982Y-1775002D02*
G01*
X7180379Y-1930400D01*
X8001000Y-1930400D01*
X8156397Y-1775002D01*
X8174979Y-1775002D01*
X5874981Y-1775002D02*
G01*
X6030379Y-1930400D01*
X6832600Y-1930400D01*
X6987997Y-1775002D01*
X7024982Y-1775002D01*
X4724986Y-1775002D02*
G01*
X4880383Y-1930400D01*
X5740400Y-1930400D01*
X5874981Y-1795818D01*
X5874981Y-1775002D01*
X3574989Y-1775002D02*
G01*
X3730386Y-1930400D01*
X4559300Y-1930400D01*
X4714697Y-1775002D01*
X4724986Y-1775002D01*
X2424988Y-1775002D02*
G01*
X2567686Y-1917700D01*
X3416300Y-1917700D01*
X3558997Y-1775002D01*
X3574989Y-1775002D01*
X1274993Y-1775002D02*
G01*
X1417690Y-1917700D01*
X2247900Y-1917700D01*
X2390597Y-1775002D01*
X2424988Y-1775002D01*
D11*
G01*
X1274993Y-924991D03*
G01*
X1274993Y-1775002D03*
G01*
X825007Y-924991D03*
G01*
X825007Y-1775002D03*
G01*
X2424988Y-924991D03*
G01*
X2424988Y-1775002D03*
G01*
X1975004Y-924991D03*
G01*
X1975004Y-1775002D03*
G01*
X3574989Y-924991D03*
G01*
X3574989Y-1775002D03*
G01*
X3125002Y-924991D03*
G01*
X3125002Y-1775002D03*
G01*
X4724986Y-924991D03*
G01*
X4724986Y-1775002D03*
G01*
X4274997Y-924991D03*
G01*
X4274997Y-1775002D03*
G01*
X5874981Y-924991D03*
G01*
X5874981Y-1775002D03*
G01*
X5424998Y-924991D03*
G01*
X5424998Y-1775002D03*
G01*
X7024982Y-924991D03*
G01*
X7024982Y-1775002D03*
G01*
X6574993Y-924991D03*
G01*
X6574993Y-1775002D03*
G01*
X8174979Y-924991D03*
G01*
X8174979Y-1775002D03*
G01*
X7724990Y-924991D03*
G01*
X7724990Y-1775002D03*
D12*
G01*
X3274989Y-249999D03*
G01*
X3625001Y-249999D03*
G01*
X3974988Y-249999D03*
G01*
X4325000Y-249999D03*
G01*
X4674986Y-249999D03*
G01*
X5024998Y-249999D03*
G01*
X5374985Y-249999D03*
G01*
X5724997Y-249999D03*
M02*
